Walking01.mot
version=1
nRows=15
nColumns=19
inDegrees=yes
endheader
time	ground_force1_vx	ground_force1_vy	ground_force1_vz	ground_force1_px	ground_force1_py	ground_force1_pz	ground_force2_vx	ground_force2_vy	ground_force2_vz	ground_force2_px	ground_force2_py	ground_force2_pz	ground_torque1_x	ground_torque1_y	ground_torque1_z	ground_torque2_x	ground_torque2_y	ground_torque2_z
      1.44700000	     -2.35894734	    221.98470195	    -10.97609760	      0.36583340	      0.00000000	     -0.05255784	      0.00000000	      0.00000000	      0.00000000	      0.00000000	      0.00000000	      0.00000000	      0.00000000	      0.01970739	      0.00000000	      0.00000000	      0.00000000	      0.00000000
      1.44800000	     -2.06814924	    222.18533392	    -10.65493173	      0.36629097	      0.00000000	     -0.05257072	      0.00000000	      0.00000000	      0.00000000	      0.00000000	      0.00000000	      0.00000000	      0.00000000	      0.04201208	      0.00000000	      0.00000000	      0.00000000	      0.00000000
      1.44900000	     -1.78292239	    222.39466917	    -10.33674981	      0.36675435	      0.00000000	     -0.05258312	      0.00000000	      0.00000000	      0.00000000	      0.00000000	      0.00000000	      0.00000000	      0.00000000	      0.06421778	      0.00000000	      0.00000000	      0.00000000	      0.00000000
      1.45000000	     -1.50377077	    222.61256246	    -10.02208685	      0.36722409	      0.00000000	     -0.05259482	      0.00000000	      0.00000000	      0.00000000	      0.00000000	      0.00000000	      0.00000000	      0.00000000	      0.08629701	      0.00000000	      0.00000000	      0.00000000	      0.00000000
      1.45100000	     -1.23117922	    222.83917651	     -9.71150399	      0.36770065	      0.00000000	     -0.05260558	      0.00000000	      0.00000000	      0.00000000	      0.00000000	      0.00000000	      0.00000000	      0.00000000	      0.10822236	      0.00000000	      0.00000000	      0.00000000	      0.00000000
      1.45200000	     -0.96562356	    223.07496373	     -9.40557969	      0.36818438	      0.00000000	     -0.05261518	      0.00000000	      0.00000000	      0.00000000	      0.00000000	      0.00000000	      0.00000000	      0.00000000	      0.12996685	      0.00000000	      0.00000000	      0.00000000	      0.00000000
      1.45300000	     -0.70758558	    223.32056301	     -9.10489408	      0.36867554	      0.00000000	     -0.05262341	      0.00000000	      0.00000000	      0.00000000	      0.00000000	      0.00000000	      0.00000000	      0.00000000	      0.15150501	      0.00000000	      0.00000000	      0.00000000	      0.00000000
      1.45400000	     -0.45756728	    223.57662791	     -8.81001785	      0.36917441	      0.00000000	     -0.05263011	      0.00000000	      0.00000000	      0.00000000	      0.00000000	      0.00000000	      0.00000000	      0.00000000	      0.17281273	      0.00000000	      0.00000000	      0.00000000	      0.00000000
      1.45500000	     -0.21610206	    223.84369388	     -8.52151373	      0.36968128	      0.00000000	     -0.05263516	      0.00000000	      0.00000000	      0.00000000	      0.00000000	      0.00000000	      0.00000000	      0.00000000	      0.19386582	      0.00000000	      0.00000000	      0.00000000	      0.00000000
      1.45600000	      0.01624124	    224.12215618	     -8.23994027	      0.37019651	      0.00000000	     -0.05263846	      0.00000000	      0.00000000	      0.00000000	      0.00000000	      0.00000000	      0.00000000	      0.00000000	      0.21463916	      0.00000000	      0.00000000	      0.00000000	      0.00000000
      1.45700000	      0.23886353	    224.41229056	     -7.96584728	      0.37072040	      0.00000000	     -0.05264001	      0.00000000	      0.00000000	      0.00000000	      0.00000000	      0.00000000	      0.00000000	      0.00000000	      0.23510734	      0.00000000	      0.00000000	      0.00000000	      0.00000000
      1.45800000	      0.45114250	    224.71429714	     -7.69976507	      0.37125316	      0.00000000	     -0.05263984	      0.00000000	      0.00000000	      0.00000000	      0.00000000	      0.00000000	      0.00000000	      0.00000000	      0.25524621	      0.00000000	      0.00000000	      0.00000000	      0.00000000
      1.45900000	      0.65243834	    225.02842117	     -7.44219499	      0.37179489	      0.00000000	     -0.05263799	      0.00000000	      0.00000000	      0.00000000	      0.00000000	      0.00000000	      0.00000000	      0.00000000	      0.27503443	      0.00000000	      0.00000000	      0.00000000	      0.00000000
      1.46000000	      0.84210117	    225.35506804	     -7.19360532	      0.37234560	      0.00000000	     -0.05263449	      0.00000000	      0.00000000	      0.00000000	      0.00000000	      0.00000000	      0.00000000	      0.00000000	      0.29445398	      0.00000000	      0.00000000	      0.00000000	      0.00000000
      1.46100000	      1.01947569	    225.69481047	     -6.95443225	      0.37290522	      0.00000000	     -0.05262934	      0.00000000	      0.00000000	      0.00000000	      0.00000000	      0.00000000	      0.00000000	      0.00000000	      0.31348910	      0.00000000	      0.00000000	      0.00000000	      0.00000000
